<svg data-v-423bf9ae="" xmlns="http://www.w3.org/2000/svg" viewBox="0 0 395 91" class="iconLeft"><!----><!----><!----><g data-v-423bf9ae="" id="4d3d02b6-e5ce-496f-9e84-7de939d91176" fill="#2B1C36" transform="matrix(5.050505001853162,0,0,5.050505001853162,104.61094592533698,-0.9511117953425057)"><path d="M5.80 13.02L5.80 13.02L1.30 13.02L1.30 13.02Q1.11 13.02 1.11 12.82L1.11 12.82L1.11 4.21L1.11 4.21Q1.11 4.02 1.30 4.02L1.30 4.02L1.93 4.02L1.93 4.02Q2.13 4.02 2.13 4.21L2.13 4.21L2.13 11.97L2.13 11.97Q2.13 12.10 2.27 12.10L2.27 12.10L5.80 12.10L5.80 12.10Q5.99 12.10 5.99 12.31L5.99 12.31L5.99 12.82L5.99 12.82Q5.99 13.02 5.80 13.02ZM10.42 13.02L10.42 13.02L9.21 13.02L9.21 13.02Q8.25 13.02 7.69 12.47L7.69 12.47L7.69 12.47Q7.14 11.93 7.14 10.95L7.14 10.95L7.14 7.95L7.14 7.95Q7.14 6.97 7.69 6.43L7.69 6.43L7.69 6.43Q8.25 5.88 9.21 5.88L9.21 5.88L10.42 5.88L10.42 5.88Q11.38 5.88 11.94 6.43L11.94 6.43L11.94 6.43Q12.49 6.97 12.49 7.95L12.49 7.95L12.49 10.95L12.49 10.95Q12.49 11.93 11.94 12.47L11.94 12.47L11.94 12.47Q11.38 13.02 10.42 13.02ZM9.32 12.12L9.32 12.12L10.30 12.12L10.30 12.12Q11.48 12.12 11.48 10.92L11.48 10.92L11.48 7.98L11.48 7.98Q11.48 6.78 10.30 6.78L10.30 6.78L9.32 6.78L9.32 6.78Q8.15 6.78 8.15 7.98L8.15 7.98L8.15 10.92L8.15 10.92Q8.15 12.12 9.32 12.12ZM18.44 12.32L18.44 12.32L18.44 12.84L18.44 12.84Q18.44 13.02 18.24 13.02L18.24 13.02L16.21 13.02L16.21 13.02Q15.25 13.02 14.69 12.47L14.69 12.47L14.69 12.47Q14.14 11.93 14.14 10.95L14.14 10.95L14.14 7.95L14.14 7.95Q14.14 6.97 14.69 6.43L14.69 6.43L14.69 6.43Q15.25 5.88 16.21 5.88L16.21 5.88L18.24 5.88L18.24 5.88Q18.44 5.88 18.44 6.08L18.44 6.08L18.44 6.59L18.44 6.59Q18.44 6.78 18.24 6.78L18.24 6.78L16.32 6.78L16.32 6.78Q15.16 6.78 15.16 7.99L15.16 7.99L15.16 10.91L15.16 10.91Q15.16 12.12 16.32 12.12L16.32 12.12L18.24 12.12L18.24 12.12Q18.44 12.12 18.44 12.32ZM22.53 13.02L22.53 13.02L21.80 13.02L21.80 13.02Q20.83 13.02 20.28 12.47L20.28 12.47L20.28 12.47Q19.73 11.93 19.73 10.95L19.73 10.95L19.73 7.95L19.73 7.95Q19.73 6.97 20.28 6.43L20.28 6.43L20.28 6.43Q20.83 5.88 21.80 5.88L21.80 5.88L24.84 5.88L24.84 5.88Q25.03 5.88 25.03 6.08L25.03 6.08L25.03 12.82L25.03 12.82Q25.03 13.02 24.84 13.02L24.84 13.02L24.21 13.02L24.21 13.02Q24.01 13.02 24.01 12.82L24.01 12.82L24.01 12.28L23.95 12.28L23.95 12.28Q23.60 13.02 22.53 13.02ZM24.01 10.84L24.01 10.84L24.01 6.90L24.01 6.90Q24.01 6.78 23.87 6.78L23.87 6.78L21.91 6.78L21.91 6.78Q20.75 6.78 20.75 7.99L20.75 7.99L20.75 10.91L20.75 10.91Q20.75 12.12 21.91 12.12L21.91 12.12L22.71 12.12L22.71 12.12Q23.34 12.12 23.67 11.79L23.67 11.79L23.67 11.79Q24.01 11.45 24.01 10.84ZM27.86 13.02L27.86 13.02L27.23 13.02L27.23 13.02Q27.03 13.02 27.03 12.82L27.03 12.82L27.03 3.37L27.03 3.37Q27.03 3.18 27.23 3.18L27.23 3.18L27.86 3.18L27.86 3.18Q28.06 3.18 28.06 3.37L28.06 3.37L28.06 12.82L28.06 12.82Q28.06 13.02 27.86 13.02ZM30.10 10.95L30.10 10.95L30.10 10.50L30.10 10.50Q30.10 10.30 30.30 10.30L30.30 10.30L30.93 10.30L30.93 10.30Q31.12 10.30 31.12 10.50L31.12 10.50L31.12 10.86L31.12 10.86Q31.12 12.12 32.37 12.12L32.37 12.12L33.60 12.12L33.60 12.12Q34.85 12.12 34.85 10.84L34.85 10.84L34.85 10.36L34.85 10.36Q34.85 9.35 33.18 9.04L33.18 9.04L33.18 9.04Q32.48 8.92 31.78 8.75L31.78 8.75L31.78 8.75Q31.08 8.58 30.59 8.10L30.59 8.10L30.59 8.10Q30.10 7.62 30.10 6.78L30.10 6.78L30.10 6.09L30.10 6.09Q30.10 5.12 30.65 4.57L30.65 4.57L30.65 4.57Q31.21 4.02 32.17 4.02L32.17 4.02L33.73 4.02L33.73 4.02Q34.68 4.02 35.24 4.57L35.24 4.57L35.24 4.57Q35.80 5.12 35.80 6.09L35.80 6.09L35.80 6.44L35.80 6.44Q35.80 6.65 35.62 6.65L35.62 6.65L34.97 6.65L34.97 6.65Q34.79 6.65 34.79 6.44L34.79 6.44L34.79 6.19L34.79 6.19Q34.79 4.91 33.54 4.91L33.54 4.91L32.35 4.91L32.35 4.91Q31.11 4.91 31.11 6.24L31.11 6.24L31.11 6.80L31.11 6.80Q31.11 7.52 32.05 7.78L32.05 7.78L32.05 7.78Q32.47 7.90 32.97 7.99L32.97 7.99L32.97 7.99Q33.47 8.08 33.98 8.22L33.98 8.22L33.98 8.22Q34.50 8.37 34.92 8.59L34.92 8.59L34.92 8.59Q35.34 8.81 35.59 9.25L35.59 9.25L35.59 9.25Q35.85 9.69 35.85 10.32L35.85 10.32L35.85 10.95L35.85 10.95Q35.85 11.91 35.29 12.47L35.29 12.47L35.29 12.47Q34.73 13.02 33.78 13.02L33.78 13.02L32.17 13.02L32.17 13.02Q31.22 13.02 30.66 12.47L30.66 12.47L30.66 12.47Q30.10 11.91 30.10 10.95ZM38.65 13.02L38.65 13.02L38.02 13.02L38.02 13.02Q37.83 13.02 37.83 12.82L37.83 12.82L37.83 3.37L37.83 3.37Q37.83 3.18 38.02 3.18L38.02 3.18L38.65 3.18L38.65 3.18Q38.85 3.18 38.85 3.37L38.85 3.37L38.85 6.62L38.91 6.62L38.91 6.62Q39.26 5.88 40.33 5.88L40.33 5.88L41.12 5.88L41.12 5.88Q42.07 5.88 42.60 6.43L42.60 6.43L42.60 6.43Q43.13 6.97 43.13 7.95L43.13 7.95L43.13 12.82L43.13 12.82Q43.13 13.02 42.94 13.02L42.94 13.02L42.31 13.02L42.31 13.02Q42.11 13.02 42.11 12.82L42.11 12.82L42.11 7.99L42.11 7.99Q42.11 6.78 40.94 6.78L40.94 6.78L40.15 6.78L40.15 6.78Q39.52 6.78 39.19 7.11L39.19 7.11L39.19 7.11Q38.85 7.45 38.85 8.06L38.85 8.06L38.85 12.82L38.85 12.82Q38.85 13.02 38.65 13.02ZM48.13 13.02L48.13 13.02L46.93 13.02L46.93 13.02Q45.96 13.02 45.41 12.47L45.41 12.47L45.41 12.47Q44.86 11.93 44.86 10.95L44.86 10.95L44.86 7.95L44.86 7.95Q44.86 6.97 45.41 6.43L45.41 6.43L45.41 6.43Q45.96 5.88 46.93 5.88L46.93 5.88L48.13 5.88L48.13 5.88Q49.10 5.88 49.65 6.43L49.65 6.43L49.65 6.43Q50.20 6.97 50.20 7.95L50.20 7.95L50.20 10.95L50.20 10.95Q50.20 11.93 49.65 12.47L49.65 12.47L49.65 12.47Q49.10 13.02 48.13 13.02ZM47.04 12.12L47.04 12.12L48.02 12.12L48.02 12.12Q49.20 12.12 49.20 10.92L49.20 10.92L49.20 7.98L49.20 7.98Q49.20 6.78 48.02 6.78L48.02 6.78L47.04 6.78L47.04 6.78Q45.86 6.78 45.86 7.98L45.86 7.98L45.86 10.92L45.86 10.92Q45.86 12.12 47.04 12.12ZM52.82 15.06L52.82 15.06L52.19 15.06L52.19 15.06Q52.00 15.06 52.00 14.87L52.00 14.87L52.00 6.08L52.00 6.08Q52.00 5.88 52.19 5.88L52.19 5.88L52.82 5.88L52.82 5.88Q53.02 5.88 53.02 6.08L53.02 6.08L53.02 6.62L53.07 6.62L53.07 6.62Q53.42 5.88 54.50 5.88L54.50 5.88L55.34 5.88L55.34 5.88Q56.29 5.88 56.82 6.43L56.82 6.43L56.82 6.43Q57.34 6.97 57.34 7.95L57.34 7.95L57.34 10.95L57.34 10.95Q57.34 11.93 56.82 12.47L56.82 12.47L56.82 12.47Q56.29 13.02 55.34 13.02L55.34 13.02L54.50 13.02L54.50 13.02Q53.42 13.02 53.07 12.28L53.07 12.28L53.02 12.28L53.02 14.87L53.02 14.87Q53.02 15.06 52.82 15.06ZM54.32 12.12L54.32 12.12L55.15 12.12L55.15 12.12Q56.34 12.12 56.34 10.91L56.34 10.91L56.34 7.99L56.34 7.99Q56.34 6.78 55.15 6.78L55.15 6.78L54.32 6.78L54.32 6.78Q53.69 6.78 53.35 7.11L53.35 7.11L53.35 7.11Q53.02 7.45 53.02 8.06L53.02 8.06L53.02 10.84L53.02 10.84Q53.02 11.45 53.35 11.79L53.35 11.79L53.35 11.79Q53.69 12.12 54.32 12.12Z"></path></g><defs data-v-423bf9ae=""><linearGradient data-v-423bf9ae="" gradientTransform="rotate(25)" id="32fbb120-47c4-42e1-9e01-f12ec85d82f5" x1="0%" y1="0%" x2="100%" y2="0%"><stop data-v-423bf9ae="" offset="0%" style="stop-color: rgb(75, 39, 155); stop-opacity: 1;"></stop><stop data-v-423bf9ae="" offset="100%" style="stop-color: rgb(223, 153, 216); stop-opacity: 1;"></stop></linearGradient></defs><g data-v-423bf9ae="" id="6f374238-111b-4dc9-a1ef-c9ffdf8d5b8e" transform="matrix(1.0012158711751302,0,0,1.0012158711751302,-4.114519648367427,-4.115508111819992)" stroke="none" fill="url(#32fbb120-47c4-42e1-9e01-f12ec85d82f5)"><path d="M93.018 6.982c-4.868-4.87-16.123-.568-28.962 8.261A37.292 37.292 0 0 0 50 12.5c-20.678 0-37.5 16.822-37.5 37.5 0 4.969.98 9.712 2.743 14.056-8.828 12.838-13.13 24.092-8.261 28.962 1.394 1.395 3.312 2.037 5.64 2.037 5.803 0 14.159-3.999 23.321-10.298A37.297 37.297 0 0 0 50 87.5c20.678 0 37.5-16.822 37.5-37.5 0-4.969-.98-9.712-2.743-14.056 8.827-12.838 13.13-24.092 8.261-28.962zM63.597 45.655a2.5 2.5 0 0 0-2.942 1.961l-2.5 12.5v.005a2.541 2.541 0 0 0-.041.557c.002.057.011.111.016.168a2.476 2.476 0 0 0 .12.565c.043.127.099.249.163.368.026.048.047.097.075.143.099.159.213.312.351.451.119.119.249.224.386.316.097.065.201.112.304.162.043.021.083.049.128.067.115.047.234.077.353.107.038.009.074.026.113.033a2.467 2.467 0 0 0 .967 0l.006-.001 12.5-2.5a2.5 2.5 0 1 0-.981-4.903l-4.658.932c4.835-5.19 9.337-10.518 13.233-15.697A32.37 32.37 0 0 1 82.5 50c0 17.92-14.58 32.5-32.5 32.5-12.67 0-23.662-7.292-29.02-17.896 3.792-5.283 8.553-11.138 14.286-17.319l-.824 4.118a2.5 2.5 0 1 0 4.903.981l2.5-12.5v-.005c.036-.184.046-.371.041-.557-.002-.057-.011-.111-.016-.168a2.476 2.476 0 0 0-.12-.565 2.41 2.41 0 0 0-.163-.368c-.026-.048-.047-.097-.075-.143a2.536 2.536 0 0 0-.351-.451 2.469 2.469 0 0 0-.452-.352c-.044-.027-.091-.048-.137-.072a2.484 2.484 0 0 0-.542-.216 2.58 2.58 0 0 0-.408-.071c-.05-.005-.099-.013-.15-.014a2.53 2.53 0 0 0-.563.04h-.005l-12.5 2.5a2.5 2.5 0 1 0 .981 4.903l4.658-.932c-4.835 5.19-9.337 10.518-13.233 15.697A32.358 32.358 0 0 1 17.5 50c0-17.92 14.58-32.5 32.5-32.5 12.67 0 23.662 7.292 29.02 17.896-3.792 5.283-8.553 11.138-14.286 17.319l.824-4.118a2.5 2.5 0 0 0-1.961-2.942zM10.518 89.482c-2.055-2.055.37-9.65 7.297-20.263a37.772 37.772 0 0 0 12.966 12.966c-10.612 6.928-18.206 9.352-20.263 7.297zm71.667-58.701A37.783 37.783 0 0 0 69.22 17.816c10.613-6.927 18.206-9.351 20.262-7.298 2.056 2.055-.369 9.649-7.297 20.263z"></path></g><!----></svg>